# xmcd
#
# Track frame offsets:
#	150
#	16693
#	30550
#	48789
#	64749
#	76630
#	98036
#	119022
#	139262
#	165039
#
# Disc length: 2415 seconds
#
# Revision: 1917007175
# Processed by: cddbd v1.5.2PL0 Copyright (c) Steve Scherf et al.
# Submitted via: EZCDAudioConverter 8.0.2.1
#
DISCID=6a096d0a
DTITLE=Lê Cát Trọng Lý
DYEAR=2011
DGENRE=
TTITLE0=Giấc mộng lớn
TTITLE1=Mùa yêu
TTITLE2=Lúng ta lúng túng
TTITLE3=Chênh vênh
TTITLE4=Hương lạc
TTITLE5=Chuyến xe
TTITLE6=Không tên
TTITLE7=Trời ơi
TTITLE8=Cơn bão nghiêng đêm
TTITLE9=Chênh vênh (guitar version)
EXTD=
EXTT0=
EXTT1=
EXTT2=
EXTT3=
EXTT4=
EXTT5=
EXTT6=
EXTT7=
EXTT8=
EXTT9=
PLAYORDER=
